<svg t="1705263448270" class="icon" viewBox="0 0 1024 1024" version="1.1" xmlns="http://www.w3.org/2000/svg" p-id="2812"
  width="200" height="200">
  <path
    d="M352 180.138667C323.555556 208.583111 369.777778 199.111111 398.222222 256c28.444444 56.888889 113.777778 28.444444 85.333334-28.444444-6.001778-12.032-29.696-31.175111-49.237334-45.624889 0 0 16.668444-19.541333 7.765334-40.277334s-90.083556 38.485333-90.083556 38.485334z"
    fill="#F7DECE" p-id="2813"></path>
  <path d="M340.707556 65.308444a79.36 79.36 0 1 0 4.096 158.663112 79.36 79.36 0 0 0-4.096-158.663112z" fill="#F7DECE"
    p-id="2814"></path>
  <path
    d="M567.552 109.624889c-24.32 6.741333-53.788444 15.985778-98.446222-16.583111-31.886222-23.267556-61.639111-31.004444-124.273778-17.294222-66.503111 14.563556-113.237333 63.544889-65.991111 77.056 20.622222 5.888 35.470222-1.991111 66.588444-5.233778 45.653333-4.750222 64.199111 33.820444 108.487111 33.792 86.641778-0.113778 149.930667-81.806222 113.635556-71.736889z"
    fill="#292F33" p-id="2815"></path>
  <path
    d="M540.444444 455.111111s-85.333333 56.888889-85.333333 85.333333 113.777778 113.777778 142.222222 142.222223 85.333333 28.444444 56.888889-28.444445-113.777778-199.111111-113.777778-199.111111z"
    fill="#EEC2AD" p-id="2816"></path>
  <path
    d="M586.922667 654.819556s33.365333 22.442667 55.808-10.951112c22.442667-33.393778 38.826667 50.375111 38.826666 50.375112s-72.789333 72.220444-128.597333 83.171555c-55.808 10.951111-33.365333-22.442667-10.951111-55.808l44.913778-66.787555z"
    fill="#A0041E" p-id="2817"></path>
  <path
    d="M199.111111 625.777778a199.111111 199.111111 0 1 0 0 398.222222 199.111111 199.111111 0 0 0 0-398.222222z m0 341.333333a142.222222 142.222222 0 1 1 0-284.444444 142.222222 142.222222 0 0 1 0 284.444444z m625.777778-341.333333a199.111111 199.111111 0 1 0 0.028444 398.250666A199.111111 199.111111 0 0 0 824.888889 625.777778z m0 341.333333a142.222222 142.222222 0 1 1 0-284.444444 142.222222 142.222222 0 0 1 0 284.444444z"
    fill="#292F33" p-id="2818"></path>
  <path
    d="M625.777778 568.888889c0-15.729778-13.767111-28.444444-30.805334-28.444445H286.805333C269.795556 540.444444 256 553.159111 256 568.888889c0 15.729778 13.795556 28.444444 30.805333 28.444444h308.138667c17.066667 0 30.833778-12.714667 30.833778-28.444444z m227.555555 256a28.444444 28.444444 0 0 0-28.444444-28.444445H512a28.444444 28.444444 0 1 0 0 56.888889h312.888889a28.444444 28.444444 0 0 0 28.444444-28.444444z"
    fill="#AAB8C2" p-id="2819"></path>
  <path
    d="M603.704889 483.555556l-118.499556 331.776a28.444444 28.444444 0 0 0 53.589334 19.114666L664.120889 483.555556h-60.416z"
    fill="#AAB8C2" p-id="2820"></path>
  <path
    d="M824.917333 853.333333c-9.386667 0-18.602667-4.664889-24.035555-13.169777l-199.111111-312.888889a28.444444 28.444444 0 1 1 48.014222-30.549334l199.111111 312.888889A28.444444 28.444444 0 0 1 824.917333 853.333333zM540.444444 731.989333l-238.563555-185.571555a28.444444 28.444444 0 1 0-34.901333 44.913778l256 199.111111a28.074667 28.074667 0 0 0 17.436444 6.001777H540.444444v-64.455111z"
    fill="#AAB8C2" p-id="2821"></path>
  <path
    d="M199.111111 853.333333a28.444444 28.444444 0 0 1-26.965333-37.461333l78.848-236.544-97.365334-73.045333a28.444444 28.444444 0 0 1 34.133334-45.511111l130.190222 97.649777-91.818667 275.456A28.558222 28.558222 0 0 1 199.111111 853.333333z"
    fill="#AAB8C2" p-id="2822"></path>
  <path
    d="M750.449778 540.444444a18.915556 18.915556 0 0 1-2.531556-0.170666l-161.336889-20.138667a20.138667 20.138667 0 0 1 2.474667-40.192c1.166222 0 115.683556-0.512 170.353778-36.949333a20.280889 20.280889 0 0 1 23.438222 0.739555 20.252444 20.252444 0 0 1 6.855111 22.414223l-20.167111 60.501333a20.053333 20.053333 0 0 1-19.086222 13.795555zM312.888889 512H170.666667a28.444444 28.444444 0 0 1 0-56.888889h142.222222a28.444444 28.444444 0 0 1 0 56.888889z"
    fill="#292F33" p-id="2823"></path>
  <path d="M625.749333 369.777778L512 455.111111l85.333333 85.333333z" fill="#A0041E" p-id="2824"></path>
  <path
    d="M568.860444 483.555556s-56.888889 85.333333-56.888888 113.777777 28.444444 113.777778 28.444444 199.111111 56.888889 85.333333 56.888889 56.888889 44.970667-154.140444 0-199.111111c-28.444444-28.444444 56.888889-113.777778 56.888889-113.777778l-85.333334-56.888888z m-122.709333-105.329778l-78.222222-22.300445c-12.714667 55.637333-85.987556 127.601778-111.928889 127.601778-28.444444 0-56.888889 0-56.888889 28.444445s0 28.444444 56.888889 28.444444 113.777778-56.888889 142.222222-85.333333c18.488889-18.488889 37.233778-49.976889 47.928889-76.856889z"
    fill="#F7DECE" p-id="2825"></path>
  <path
    d="M625.749333 369.777778l-85.333333 113.777778 113.777778 85.333333s142.222222-142.222222 142.222222-199.111111-85.333333-85.333333-85.333333-85.333334l-85.333334 85.333334z"
    fill="#BE1931" p-id="2826"></path>
  <path
    d="M597.304889 199.082667c-85.333333-28.444444-158.862222-11.776-199.111111 28.444444-28.444444 28.444444-28.444444 56.888889-28.444445 113.777778 0 5.006222-0.853333 10.296889-2.076444 15.644444l78.051555 22.300445c5.745778-14.478222 9.386667-27.989333 9.386667-37.944889 0-28.444444 28.444444-28.444444 56.888889 0s56.888889 56.888889 85.333333 56.888889 170.666667-113.777778 170.666667-113.777778c-85.361778-28.444444-116.707556-67.356444-170.695111-85.333333zM540.444444 824.888889s28.444444 28.444444 56.888889 0 28.444444 56.888889 28.444445 56.888889-85.333333 56.888889-142.222222 56.888889-28.444444-28.444444 0-56.888889l56.888888-56.888889zM312.888889 56.888889c56.888889-28.444444 170.666667 0 113.777778 56.888889-28.444444 28.444444-199.111111 56.888889-199.111111 56.888889 0-28.444444 28.444444-85.333333 85.333333-113.777778z"
    fill="#DD2E44" p-id="2827"></path>
</svg>